<?xml version="1.0" encoding="UTF-8"?>
<svg version="1.1" xmlns="http://www.w3.org/2000/svg" width="244" height="94">
<path d="M0 0 C2.00253372 1.2661935 3.90227808 2.62965124 5.8203125 4.01953125 C7.10338496 4.74331571 8.3947423 5.45268153 9.6953125 6.14453125 C14.62248994 9.10083771 14.94800933 11.40262175 16.8203125 17.01953125 C17.3153125 10.58453125 17.3153125 10.58453125 17.8203125 4.01953125 C21.4503125 4.01953125 25.0803125 4.01953125 28.8203125 4.01953125 C28.8203125 5.33953125 28.8203125 6.65953125 28.8203125 8.01953125 C26.8403125 8.01953125 24.8603125 8.01953125 22.8203125 8.01953125 C22.8203125 8.67953125 22.8203125 9.33953125 22.8203125 10.01953125 C24.4703125 10.01953125 26.1203125 10.01953125 27.8203125 10.01953125 C27.8203125 11.33953125 27.8203125 12.65953125 27.8203125 14.01953125 C26.1703125 14.01953125 24.5203125 14.01953125 22.8203125 14.01953125 C22.8203125 15.99953125 22.8203125 17.97953125 22.8203125 20.01953125 C21.8303125 20.51453125 21.8303125 20.51453125 20.8203125 21.01953125 C21.0678125 22.87578125 21.0678125 22.87578125 21.3203125 24.76953125 C21.69740694 27.59773957 21.8203125 30.13517187 21.8203125 33.01953125 C18.35816601 35.07117362 17.22642015 35.01953125 12.8203125 35.01953125 C12.8203125 38.97953125 12.8203125 42.93953125 12.8203125 47.01953125 C8.8203125 46.01953125 8.8203125 46.01953125 6.0078125 43.45703125 C2.69071909 40.51688028 0.20931939 40.859931 -4.1796875 41.01953125 C-7.0546875 39.89453125 -7.0546875 39.89453125 -9.1796875 38.01953125 C-9.9921875 34.83203125 -9.9921875 34.83203125 -10.1796875 32.01953125 C-10.5303125 32.65890625 -10.8809375 33.29828125 -11.2421875 33.95703125 C-14.0238036 36.91810645 -16.19476274 36.88212005 -20.1796875 37.01953125 C-23.1171875 36.08203125 -23.1171875 36.08203125 -25.1796875 35.01953125 C-25.1796875 32.70953125 -25.1796875 30.39953125 -25.1796875 28.01953125 C-25.5096875 29.33953125 -25.8396875 30.65953125 -26.1796875 32.01953125 C-27.9921875 31.95703125 -27.9921875 31.95703125 -30.1796875 31.01953125 C-32.11127609 27.6225996 -33.1796875 25.07509971 -33.1796875 21.14453125 C-30.23761713 11.95056135 -25.26986984 6.29079068 -17.1796875 1.01953125 C-11.74348399 -1.56752672 -5.64794537 -2.54056324 0 0 Z " fill="#366783" transform="translate(54.1796875,25.98046875)"/>
<path d="M0 0 C3.3125 1.5 3.3125 1.5 6 3 C6 4.32 6 5.64 6 7 C7.65 7 9.3 7 11 7 C11 7.99 11 8.98 11 10 C11.94875 10.185625 12.8975 10.37125 13.875 10.5625 C17 12 17 12 18.375 15.625 C18.58125 16.73875 18.7875 17.8525 19 19 C16 21 16 21 14 22 C14 22.99 14 23.98 14 25 C14.66 25 15.32 25 16 25 C17.19287411 28.87684087 18 31.91621923 18 36 C14.54067716 36.88494305 12.56900527 37.21495755 9.1875 35.9375 C6.36924 33.44132685 6.24524913 31.67873693 6 28 C5.649375 28.639375 5.29875 29.27875 4.9375 29.9375 C2.1558839 32.8985752 -0.01507524 32.8625888 -4 33 C-6.9375 32.0625 -6.9375 32.0625 -9 31 C-9 28.69 -9 26.38 -9 24 C-9.33 25.32 -9.66 26.64 -10 28 C-11.8125 27.9375 -11.8125 27.9375 -14 27 C-15.93158859 23.60306835 -17 21.05556846 -17 17.125 C-14.63468429 9.73338841 -9.47092799 -1.8941856 0 0 Z " fill="#FCEAA6" transform="translate(38,30)"/>
<path d="M0 0 C1.65 0 3.3 0 5 0 C6.14814997 2.29629994 6.30769809 4.07698086 6.5625 6.625 C6.64628906 7.44226562 6.73007813 8.25953125 6.81640625 9.1015625 C6.87699219 9.72804688 6.93757813 10.35453125 7 11 C7.66 11 8.32 11 9 11 C9.33 7.37 9.66 3.74 10 0 C17.92 0 25.84 0 34 0 C34.495 5.94 34.495 5.94 35 12 C35.66 11.67 36.32 11.34 37 11 C37.4683265 8.41394668 37.4683265 8.41394668 37.625 5.4375 C37.69976562 4.42558594 37.77453125 3.41367187 37.8515625 2.37109375 C37.90054688 1.58863281 37.94953125 0.80617188 38 0 C39.65 0 41.3 0 43 0 C43.0810206 2.10353495 43.13919907 4.20795952 43.1875 6.3125 C43.23970703 8.07013672 43.23970703 8.07013672 43.29296875 9.86328125 C43 13 43 13 41.73828125 14.890625 C38.64166881 16.86689002 35.53084157 16.63996504 32 16 C30 14.5 30 14.5 29 12 C28.77675378 9.27951115 28.86298262 6.74034764 29 4 C27.35 4 25.7 4 24 4 C24 7.96 24 11.92 24 16 C22.35 16 20.7 16 19 16 C19 12.04 19 8.08 19 4 C17.68 4 16.36 4 15 4 C15.061875 5.2375 15.12375 6.475 15.1875 7.75 C15.16382559 10.42047297 15.00508194 11.98729514 14 14.5 C11.43395674 16.42453245 9.18910541 16.48263421 6.03515625 16.53125 C3.02751704 15.74614648 1.84764304 14.47444877 0 12 C-0.390625 8.984375 -0.390625 8.984375 -0.25 5.75 C-0.21390625 4.67234375 -0.1778125 3.5946875 -0.140625 2.484375 C-0.09421875 1.66453125 -0.0478125 0.8446875 0 0 Z " fill="#1A252D" transform="translate(84,30)"/>
<path d="M0 0 C2.5 2 2.5 2 4 4 C4.66 3.34 5.32 2.68 6 2 C10.15562097 -0.77041398 12.06667872 -0.70476018 17 0 C19.99993115 2.54994148 20.85480459 4.12882756 21.5 8 C20.84823663 11.91058019 20.06862356 13.45528778 17 16 C13.88330554 16.65765113 11.11803147 16.64649093 8 16 C5.4375 14 5.4375 14 4 12 C3.505 12.66 3.01 13.32 2.5 14 C-0.55823767 16.44659013 -2.27382217 16.60305539 -6.09375 16.375 C-8 16 -8 16 -10.5 14.5 C-12.62153384 10.96411027 -12.791013 8.02098277 -12 4 C-9.19071158 -0.68214736 -5.04358962 -1.07486336 0 0 Z M-5 4 C-5.66 4.66 -6.32 5.32 -7 6 C-6.67958603 8.60280568 -6.67958603 8.60280568 -6 11 C-2.06329512 12.31223496 0.12488144 11.24296256 4 10 C4 8.68 4 7.36 4 6 C2.54536519 5.61090015 1.08608793 5.23911971 -0.375 4.875 C-1.18710938 4.66617188 -1.99921875 4.45734375 -2.8359375 4.2421875 C-3.90714844 4.12230469 -3.90714844 4.12230469 -5 4 Z M12 4 C11.01 4.99 10.02 5.98 9 7 C9.66 8.65 10.32 10.3 11 12 C12.32 11.67 13.64 11.34 15 11 C15.33 9.35 15.66 7.7 16 6 C14.68 5.34 13.36 4.68 12 4 Z " fill="#1C2931" transform="translate(173,30)"/>
<path d="M0 0 C2.26294867 1.00844415 4.10473784 2.19011519 6.109375 3.640625 C7.987115 4.99073558 9.86939599 5.97435492 11.9375 7 C15 9 15 9 16.1875 11.4375 C15.9247607 15.0282704 14.54229486 16.52832444 12 19 C11.01 19 10.02 19 9 19 C8.67 19.66 8.34 20.32 8 21 C6.68 21 5.36 21 4 21 C3.67 20.01 3.34 19.02 3 18 C-0.00007271 16.29144978 -0.00007271 16.29144978 -3 15 C-3 14.01 -3 13.02 -3 12 C-4.65 12 -6.3 12 -8 12 C-8.33 10.68 -8.66 9.36 -9 8 C-10.65 7.67 -12.3 7.34 -14 7 C-14 6.34 -14 5.68 -14 5 C-14.99 4.67 -15.98 4.34 -17 4 C-10.98893933 0.36172643 -7.09972271 -0.93828934 0 0 Z " fill="#80D7D5" transform="translate(52,25)"/>
<path d="M0 0 C3.3125 1.5 3.3125 1.5 6 3 C6 4.32 6 5.64 6 7 C7.65 7 9.3 7 11 7 C11 7.99 11 8.98 11 10 C11.969375 10.28875 12.93875 10.5775 13.9375 10.875 C17 12 17 12 18 14 C16.04096255 13.52372025 14.08278903 13.04388577 12.125 12.5625 C11.03445312 12.29566406 9.94390625 12.02882813 8.8203125 11.75390625 C6 11 6 11 4 10 C4.33 10.99 4.66 11.98 5 13 C3.75 14.5 3.75 14.5 2 16 C0.68 16 -0.64 16 -2 16 C-2.33 15.34 -2.66 14.68 -3 14 C-4.11375 14.33 -5.2275 14.66 -6.375 15 C-10 16 -10 16 -12 16 C-11.67 17.98 -11.34 19.96 -11 22 C-11.66 22 -12.32 22 -13 22 C-13.66 23.32 -14.32 24.64 -15 26 C-16.68582965 21.40228279 -17.52502934 18.63709937 -16.0078125 13.90625 C-8.54778581 -1.70955716 -8.54778581 -1.70955716 0 0 Z " fill="#F1D989" transform="translate(38,30)"/>
<path d="M0 0 C0.66 0.33 1.32 0.66 2 1 C1.67 1.99 1.34 2.98 1 4 C0.34 4 -0.32 4 -1 4 C-1 4.99 -1 5.98 -1 7 C-0.34 7 0.32 7 1 7 C2.19287411 10.87684087 3 13.91621923 3 18 C-0.45932284 18.88494305 -2.43099473 19.21495755 -5.8125 17.9375 C-8.63076 15.44132685 -8.75475087 13.67873693 -9 10 C-9.5878125 10.9590625 -9.5878125 10.9590625 -10.1875 11.9375 C-12.38472296 14.43778819 -13.75791433 14.64950425 -17 15 C-17 14.01 -17 13.02 -17 12 C-16.34 12 -15.68 12 -15 12 C-14.6596875 10.948125 -14.6596875 10.948125 -14.3125 9.875 C-12.60220579 6.12864126 -10.96644161 3.89902249 -8 1 C-4.8125 0.6875 -4.8125 0.6875 -2 1 C-1.34 0.67 -0.68 0.34 0 0 Z " fill="#C08083" transform="translate(53,48)"/>
<path d="M0 0 C1.588125 -0.061875 3.17625 -0.12375 4.8125 -0.1875 C6.15248047 -0.23970703 6.15248047 -0.23970703 7.51953125 -0.29296875 C10 0 10 0 11.8046875 1.35546875 C13.49026234 3.67451126 13.35031189 5.19750488 13 8 C12.01 9.485 12.01 9.485 11 11 C11.80161791 13.67145537 11.80161791 13.67145537 13 16 C11.02 16 9.04 16 7 16 C6.67 15.34 6.34 14.68 6 14 C5.67 14.66 5.34 15.32 5 16 C3.35 16 1.7 16 0 16 C0 10.72 0 5.44 0 0 Z M5 4 C5 4.66 5 5.32 5 6 C5.99 6 6.98 6 8 6 C8 5.34 8 4.68 8 4 C7.01 4 6.02 4 5 4 Z " fill="#111D27" transform="translate(129,30)"/>
<path d="M0 0 C1.588125 -0.061875 3.17625 -0.12375 4.8125 -0.1875 C6.15248047 -0.23970703 6.15248047 -0.23970703 7.51953125 -0.29296875 C10 0 10 0 11.80859375 1.359375 C13.48427638 3.66687239 13.27289388 5.20283775 13 8 C12.814375 8.680625 12.62875 9.36125 12.4375 10.0625 C11.91957523 12.35616685 12.2883622 13.78601575 13 16 C11.02 16 9.04 16 7 16 C6.67 15.34 6.34 14.68 6 14 C5.67 14.66 5.34 15.32 5 16 C3.35 16 1.7 16 0 16 C0 10.72 0 5.44 0 0 Z M5 4 C5 4.66 5 5.32 5 6 C5.99 6 6.98 6 8 6 C8 5.34 8 4.68 8 4 C7.01 4 6.02 4 5 4 Z " fill="#1F282F" transform="translate(195,30)"/>
<path d="M0 0 C1.92154764 0.9063904 3.83706654 1.82556804 5.75 2.75 C6.81734375 3.26046875 7.8846875 3.7709375 8.984375 4.296875 C11.88832444 5.93692934 13.86926741 7.44934201 16 10 C15.89607974 13.3254483 14.22499294 15.60385376 12 18 C11.01 18 10.02 18 9 18 C8.67 18.66 8.34 19.32 8 20 C6.68 20 5.36 20 4 20 C3.34 18.02 2.68 16.04 2 14 C2.99 14 3.98 14 5 14 C5.33 14.66 5.66 15.32 6 16 C6.99 13.36 7.98 10.72 9 8 C6.69 8 4.38 8 2 8 C3.32 7.67 4.64 7.34 6 7 C1.94568308 5.84162374 -0.21812119 6.16308743 -4 8 C-4.66 7.34 -5.32 6.68 -6 6 C-4.35 5.67 -2.7 5.34 -1 5 C-0.67 3.35 -0.34 1.7 0 0 Z " fill="#7DD4D8" transform="translate(52,26)"/>
<path d="M0 0 C3.3 0 6.6 0 10 0 C10.33 0.66 10.66 1.32 11 2 C10.67 2.66 10.34 3.32 10 4 C8.35 4 6.7 4 5 4 C5 4.66 5 5.32 5 6 C6.65 6 8.3 6 10 6 C10 7.32 10 8.64 10 10 C8.35 10 6.7 10 5 10 C5 10.66 5 11.32 5 12 C6.65 12 8.3 12 10 12 C10.33 13.32 10.66 14.64 11 16 C7.37 16 3.74 16 0 16 C0 10.72 0 5.44 0 0 Z " fill="#1B2329" transform="translate(209,30)"/>
<path d="M0 0 C3.3 0 6.6 0 10 0 C10 1.32 10 2.64 10 4 C8.35 4 6.7 4 5 4 C5 4.66 5 5.32 5 6 C6.65 6 8.3 6 10 6 C10 7.32 10 8.64 10 10 C8.35 10 6.7 10 5 10 C5 10.66 5 11.32 5 12 C6.65 12 8.3 12 10 12 C10.33 13.32 10.66 14.64 11 16 C7.37 16 3.74 16 0 16 C0 10.72 0 5.44 0 0 Z " fill="#252D33" transform="translate(143,30)"/>
<path d="M0 0 C2.89932357 2.39509338 3.50168276 4.31245243 4 8 C1.69 7.67 -0.62 7.34 -3 7 C-3.33 7.99 -3.66 8.98 -4 10 C-4.33 9.34 -4.66 8.68 -5 8 C-5.99 9.485 -5.99 9.485 -7 11 C-9.1640625 11.73046875 -9.1640625 11.73046875 -11.625 12.1875 C-12.44226562 12.34605469 -13.25953125 12.50460938 -14.1015625 12.66796875 C-14.72804687 12.77753906 -15.35453125 12.88710938 -16 13 C-16 12.01 -16 11.02 -16 10 C-16.66 10 -17.32 10 -18 10 C-17.75 7.625 -17.75 7.625 -17 5 C-13.64013738 2.67394126 -10.24673759 2.61480426 -6.25 2.375 C-5.07953125 2.30023438 -3.9090625 2.22546875 -2.703125 2.1484375 C-1.81109375 2.09945312 -0.9190625 2.05046875 0 2 C0 1.34 0 0.68 0 0 Z " fill="#6CD5E3" transform="translate(70,45)"/>
<path d="M0 0 C3.63 0 7.26 0 11 0 C11 1.32 11 2.64 11 4 C9.02 4 7.04 4 5 4 C5 4.66 5 5.32 5 6 C6.65 6 8.3 6 10 6 C10 7.32 10 8.64 10 10 C8.35 10 6.7 10 5 10 C5 11.98 5 13.96 5 16 C3.68 16.33 2.36 16.66 1 17 C-0.18681726 13.43954823 -0.09689832 10.56191663 -0.0625 6.8125 C-0.05347656 5.54019531 -0.04445313 4.26789062 -0.03515625 2.95703125 C-0.02355469 1.98121094 -0.01195313 1.00539063 0 0 Z " fill="#203136" transform="translate(72,30)"/>
<path d="M0 0 C1.65 0 3.3 0 5 0 C5.0810206 2.10353495 5.13919907 4.20795952 5.1875 6.3125 C5.22230469 7.48425781 5.25710937 8.65601563 5.29296875 9.86328125 C5 13 5 13 3.75 14.90625 C0.61284491 16.86697193 -2.38542599 16.17776593 -6 16 C-7.17571451 12.32589215 -7.07366746 8.83070817 -7 5 C-6.34 4.67 -5.68 4.34 -5 4 C-4.34 6.64 -3.68 9.28 -3 12 C-2.34 11.67 -1.68 11.34 -1 11 C-0.5316735 8.41394668 -0.5316735 8.41394668 -0.375 5.4375 C-0.30023438 4.42558594 -0.22546875 3.41367187 -0.1484375 2.37109375 C-0.09945312 1.58863281 -0.05046875 0.80617188 0 0 Z " fill="#0D1B24" transform="translate(122,30)"/>
<path d="M0 0 C1.65 0 3.3 0 5 0 C6.14814997 2.29629994 6.30769809 4.07698086 6.5625 6.625 C6.64628906 7.44226562 6.73007813 8.25953125 6.81640625 9.1015625 C6.87699219 9.72804688 6.93757813 10.35453125 7 11 C7.99 11.33 8.98 11.66 10 12 C10.33 8.37 10.66 4.74 11 1 C11.66 1 12.32 1 13 1 C13.08114106 2.77007714 13.13925505 4.54122098 13.1875 6.3125 C13.22230469 7.29863281 13.25710937 8.28476562 13.29296875 9.30078125 C13 12 13 12 11.7421875 13.83203125 C8.52448822 15.98918839 5.78364244 15.3603469 2 15 C-0.35119399 11.47320901 -0.21443452 9.97120515 -0.125 5.8125 C-0.10695313 4.72582031 -0.08890625 3.63914063 -0.0703125 2.51953125 C-0.04710938 1.68808594 -0.02390625 0.85664063 0 0 Z " fill="#16232C" transform="translate(84,30)"/>
<path d="M0 0 C0.33 0 0.66 0 1 0 C1.28875 0.969375 1.5775 1.93875 1.875 2.9375 C2.64214682 6.10664203 2.64214682 6.10664203 5 7 C6.45823301 9.54744379 7.42649476 12.12165295 8 15 C6.9375 18 6.9375 18 5 20 C1 20 1 20 -2 18 C-1.67 17.01 -1.34 16.02 -1 15 C0.98 15 2.96 15 5 15 C4.34 13.35 3.68 11.7 3 10 C2.38125 10.165 1.7625 10.33 1.125 10.5 C-3.25470729 11.20075317 -7.57428989 11.07734251 -12 11 C-12 10.34 -12 9.68 -12 9 C-10.7625 8.62875 -9.525 8.2575 -8.25 7.875 C-3.70519448 6.20991196 -2.30800533 4.15440959 0 0 Z " fill="#5596A7" transform="translate(68,37)"/>
<path d="M0 0 C0.721875 0.185625 1.44375 0.37125 2.1875 0.5625 C5.12826973 1.01995307 7.14103058 0.73516357 10 0 C10 3.3 10 6.6 10 10 C6.66666667 10 3.33333333 10 0 10 C0 6.7 0 3.4 0 0 Z " fill="#BE3135" transform="translate(92,52)"/>
<path d="M0 0 C1.65 0.33 3.3 0.66 5 1 C5 3.31 5 5.62 5 8 C2.69 8.33 0.38 8.66 -2 9 C-1.67 10.98 -1.34 12.96 -1 15 C-1.66 15 -2.32 15 -3 15 C-3.66 16.32 -4.32 17.64 -5 19 C-7.66077956 10.55824616 -7.66077956 10.55824616 -5.625 5.9375 C-5.08875 4.968125 -4.5525 3.99875 -4 3 C-1.03 3.495 -1.03 3.495 2 4 C1.34 2.68 0.68 1.36 0 0 Z " fill="#F9E19C" transform="translate(28,37)"/>
<path d="M0 0 C2.31 0 4.62 0 7 0 C7 0.66 7 1.32 7 2 C8.32 2.33 9.64 2.66 11 3 C11 7.29 11 11.58 11 16 C10.34 16 9.68 16 9 16 C9 12.04 9 8.08 9 4 C7.68 4 6.36 4 5 4 C5.061875 5.2375 5.12375 6.475 5.1875 7.75 C5.16382559 10.42047297 5.00508194 11.98729514 4 14.5 C0.79687946 16.9023404 -2.07346641 16.25747761 -6 16 C-5.67 15.34 -5.34 14.68 -5 14 C-4.21625 14.04125 -3.4325 14.0825 -2.625 14.125 C0.16116119 14.28728734 0.16116119 14.28728734 2 12 C2.46290221 9.33757179 2.46290221 9.33757179 2.625 6.375 C2.69976562 5.37210938 2.77453125 4.36921875 2.8515625 3.3359375 C2.90054688 2.56507812 2.94953125 1.79421875 3 1 C2.34 1 1.68 1 1 1 C1 4.63 1 8.26 1 12 C0.01 12.495 0.01 12.495 -1 13 C-0.67 8.71 -0.34 4.42 0 0 Z " fill="#27333C" transform="translate(94,30)"/>
<path d="M0 0 C4 1 4 1 5 2 C5.33 1.34 5.66 0.68 6 0 C6.99 0 7.98 0 9 0 C10.49297212 2.98594424 10.11755228 5.70853624 10 9 C9.67 9.66 9.34 10.32 9 11 C7.68 10.67 6.36 10.34 5 10 C5 9.34 5 8.68 5 8 C4.34 8 3.68 8 3 8 C3 8.99 3 9.98 3 11 C2.01 11 1.02 11 0 11 C0 7.37 0 3.74 0 0 Z " fill="#AD3230" transform="translate(181,52)"/>
<path d="M0 0 C0.66 0.33 1.32 0.66 2 1 C1.67 1.99 1.34 2.98 1 4 C-0.98 4.33 -2.96 4.66 -5 5 C-5.33 5.99 -5.66 6.98 -6 8 C-9.34137482 11.91418193 -12.01256118 13.72414356 -17 15 C-17 14.01 -17 13.02 -17 12 C-16.34 12 -15.68 12 -15 12 C-14.6596875 10.948125 -14.6596875 10.948125 -14.3125 9.875 C-12.60220579 6.12864126 -10.96644161 3.89902249 -8 1 C-4.8125 0.6875 -4.8125 0.6875 -2 1 C-1.34 0.67 -0.68 0.34 0 0 Z " fill="#854449" transform="translate(53,48)"/>
<path d="M0 0 C1.875 1.125 1.875 1.125 3 3 C2.875 6.0625 2.875 6.0625 2 9 C-1 11 -1 11 -4.125 10.6875 C-7 10 -7 10 -8 9 C-8.25 5.5625 -8.25 5.5625 -8 2 C-4.76746204 -0.15502531 -3.74849077 -0.46856135 0 0 Z M-4 4 C-4 4.99 -4 5.98 -4 7 C-3.01 7 -2.02 7 -1 7 C-1 6.01 -1 5.02 -1 4 C-1.99 4 -2.98 4 -4 4 Z " fill="#B54545" transform="translate(176,52)"/>
<path d="M0 0 C4 1 4 1 6 3 C6.33 2.01 6.66 1.02 7 0 C7.99 0 8.98 0 10 0 C10 3.3 10 6.6 10 10 C6 10 6 10 4 9 C3.67 9.66 3.34 10.32 3 11 C2.01 10.67 1.02 10.34 0 10 C0 6.7 0 3.4 0 0 Z " fill="#B42A2A" transform="translate(104,52)"/>
<path d="M0 0 C1.875 1.6875 1.875 1.6875 3 4 C2.875 6.625 2.875 6.625 2 9 C-1 11 -1 11 -3.5625 10.75 C-6 10 -6 10 -8 8 C-8.3125 5 -8.3125 5 -8 2 C-4.77856724 -0.14762184 -3.7404533 -0.561068 0 0 Z M-3 3 C-3.33 4.32 -3.66 5.64 -4 7 C-3.01 7 -2.02 7 -1 7 C-1.33 5.68 -1.66 4.36 -2 3 C-2.33 3 -2.66 3 -3 3 Z " fill="#BB4747" transform="translate(124,52)"/>
<path d="M0 0 C1 3 1 3 1 6 C2.65 5.67 4.3 5.34 6 5 C6 4.34 6 3.68 6 3 C5.34 2.34 4.68 1.68 4 1 C5.32 1.33 6.64 1.66 8 2 C7.85691406 2.90492187 7.85691406 2.90492187 7.7109375 3.828125 C7.54464844 5.02695312 7.54464844 5.02695312 7.375 6.25 C7.25898438 7.03890625 7.14296875 7.8278125 7.0234375 8.640625 C6.99680605 11.32152459 7.63407916 12.72694089 9 15 C6.625 15.1875 6.625 15.1875 4 15 C3.34 14.01 2.68 13.02 2 12 C0.02 12.99 0.02 12.99 -2 14 C-2 9.71 -2 5.42 -2 1 C-1.34 0.67 -0.68 0.34 0 0 Z " fill="#0B1822" transform="translate(198,31)"/>
<path d="M0 0 C0.66 0.33 1.32 0.66 2 1 C2 1.99 2 2.98 2 4 C6.23646767 5.0089034 6.23646767 5.0089034 10.375 4.0625 C10.91125 3.711875 11.4475 3.36125 12 3 C12 4.32 12 5.64 12 7 C8.86501708 8.85776765 6.62528568 9.20140476 3 9 C3 8.34 3 7.68 3 7 C-1.64586892 7.48484276 -1.64586892 7.48484276 -6 9 C-5.67 7.35 -5.34 5.7 -5 4 C-3.68 4 -2.36 4 -1 4 C-0.67 2.68 -0.34 1.36 0 0 Z " fill="#1E4B7E" transform="translate(64,52)"/>
<path d="M0 0 C1.2684375 0.12375 1.2684375 0.12375 2.5625 0.25 C4.5625 3.25 4.5625 3.25 4.5625 6.25 C4.2562566 7.58981486 3.92798445 8.92511887 3.5625 10.25 C1.25 10.9375 1.25 10.9375 -1.4375 11.25 C-3.25 10 -3.25 10 -4.4375 8.25 C-4.4375 0.45512821 -4.4375 0.45512821 0 0 Z " fill="#BC4042" transform="translate(196.4375,51.75)"/>
<path d="M0 0 C1.60332791 -0.08121924 3.20784026 -0.13929134 4.8125 -0.1875 C6.15248047 -0.23970703 6.15248047 -0.23970703 7.51953125 -0.29296875 C10 0 10 0 11.8046875 1.35546875 C13.49026234 3.67451126 13.35031189 5.19750488 13 8 C12.01 9.485 12.01 9.485 11 11 C11.80161791 13.67145537 11.80161791 13.67145537 13 16 C12.01 15.67 11.02 15.34 10 15 C8.8125 11.9375 8.8125 11.9375 8 9 C8.66 8.34 9.32 7.68 10 7 C10 6.67 10 6.34 10 6 C9.195625 6.495 8.39125 6.99 7.5625 7.5 C5 9 5 9 4 9 C3.67 6.69 3.34 4.38 3 2 C2.01 2.33 1.02 2.66 0 3 C0 2.01 0 1.02 0 0 Z M5 4 C5 4.66 5 5.32 5 6 C5.99 6 6.98 6 8 6 C8 5.34 8 4.68 8 4 C7.01 4 6.02 4 5 4 Z " fill="#1C2830" transform="translate(129,30)"/>
<path d="M0 0 C1.65 0.33 3.3 0.66 5 1 C6.31626692 4.61973402 7 7.09567131 7 11 C6.0925 10.814375 5.185 10.62875 4.25 10.4375 C1.24339146 10.03276424 -0.1880462 10.17475269 -3 11 C-2.69078116 9.54096742 -2.37751201 8.08279278 -2.0625 6.625 C-1.88847656 5.81289063 -1.71445313 5.00078125 -1.53515625 4.1640625 C-1 2 -1 2 0 0 Z " fill="#BC3F3F" transform="translate(143,52)"/>
<path d="M0 0 C0.33 0 0.66 0 1 0 C1.625 2.8125 1.625 2.8125 2 6 C1.01 7.485 1.01 7.485 0 9 C-0.66 9 -1.32 9 -2 9 C-2 9.99 -2 10.98 -2 12 C-4.31 11.34 -6.62 10.68 -9 10 C-9 8.02 -9 6.04 -9 4 C-8.01 3.67 -7.02 3.34 -6 3 C-5.67 2.34 -5.34 1.68 -5 1 C-4.34 2.32 -3.68 3.64 -3 5 C-2.525625 4.175 -2.05125 3.35 -1.5625 2.5 C-1.046875 1.675 -0.53125 0.85 0 0 Z " fill="#CF5A57" transform="translate(38,51)"/>
<path d="M0 0 C2.86724686 0.57344937 3.8614515 0.8614515 6 3 C6.33 2.01 6.66 1.02 7 0 C8.32 0 9.64 0 11 0 C10.39301257 4.12751449 8.96189209 7.3321148 7 11 C5.1875 10.9375 5.1875 10.9375 3 10 C1.18721244 6.5039097 0 3.96018245 0 0 Z " fill="#B32B2A" transform="translate(128,52)"/>
<path d="M0 0 C0.33 0.66 0.66 1.32 1 2 C2.65 2 4.3 2 6 2 C6 2.99 6 3.98 6 5 C7.4540625 5.433125 7.4540625 5.433125 8.9375 5.875 C12 7 12 7 13 9 C11.04096255 8.52372025 9.08278903 8.04388577 7.125 7.5625 C6.03445312 7.29566406 4.94390625 7.02882813 3.8203125 6.75390625 C1 6 1 6 -1 5 C-0.67 5.99 -0.34 6.98 0 8 C-1.25 9.5 -1.25 9.5 -3 11 C-4.32 11 -5.64 11 -7 11 C-6.42434163 7.66118147 -5.46131758 6.27198545 -3 4 C-1.98199424 2.68036291 -0.97751635 1.34990354 0 0 Z " fill="#F1DBA7" transform="translate(43,35)"/>
<path d="M0 0 C-2.70879335 1.35439668 -5.00933268 1.06501451 -8 1 C-8.38063221 3.3260857 -8.71269945 5.66055264 -9 8 C-8.01732141 9.20561184 -8.01732141 9.20561184 -6.15234375 9.09765625 C-4.1015625 9.06510417 -2.05078125 9.03255208 0 9 C0 9.66 0 10.32 0 11 C-4.04086223 13.02043112 -6.64242801 13.25885413 -11 12 C-13 9 -13 9 -12.8125 6.0625 C-11.98737765 2.95242346 -11.21583155 1.30105585 -9 -1 C-5.23375329 -2.25541557 -3.62811066 -1.37061958 0 0 Z " fill="#0D1A23" transform="translate(174,33)"/>
<path d="M0 0 C1.65 0 3.3 0 5 0 C5.33 0.66 5.66 1.32 6 2 C5.67 2.66 5.34 3.32 5 4 C3.35 4 1.7 4 0 4 C0 4.66 0 5.32 0 6 C1.65 6 3.3 6 5 6 C5 7.32 5 8.64 5 10 C3.35 10 1.7 10 0 10 C0 10.66 0 11.32 0 12 C1.65 12 3.3 12 5 12 C4.67 12.99 4.34 13.98 4 15 C2.02 14.34 0.04 13.68 -2 13 C-1.814375 12.195625 -1.62875 11.39125 -1.4375 10.5625 C-1.293125 9.716875 -1.14875 8.87125 -1 8 C-1.33 7.67 -1.66 7.34 -2 7 C-1.60508364 4.43304364 -1.16438003 2.32876006 0 0 Z " fill="#252B31" transform="translate(214,30)"/>
<path d="M0 0 C0.66 0.33 1.32 0.66 2 1 C2 1.99 2 2.98 2 4 C2.66 3.67 3.32 3.34 4 3 C4 3.66 4 4.32 4 5 C5.32 5.33 6.64 5.66 8 6 C8 8.64 8 11.28 8 14 C4.58841744 12.86280581 3.88145399 11.95657056 2 9 C2 8.34 2 7.68 2 7 C0.68 6.67 -0.64 6.34 -2 6 C-2.33 4.68 -2.66 3.36 -3 2 C-2.01 1.34 -1.02 0.68 0 0 Z " fill="#4E85A5" transform="translate(57,56)"/>
<path d="M0 0 C1.65 0 3.3 0 5 0 C5.0810206 2.10353495 5.13919907 4.20795952 5.1875 6.3125 C5.22230469 7.48425781 5.25710937 8.65601563 5.29296875 9.86328125 C5 13 5 13 3.75 14.90625 C0.61284491 16.86697193 -2.38542599 16.17776593 -6 16 C-6 15.34 -6 14.68 -6 14 C-5.071875 14.061875 -4.14375 14.12375 -3.1875 14.1875 C-0.08649723 14.29528044 -0.08649723 14.29528044 1.65625 12.78125 C3.33175114 10.56023686 3.48784234 9.06777564 3.6875 6.3125 C3.75324219 5.50425781 3.81898437 4.69601563 3.88671875 3.86328125 C3.92410156 3.24839844 3.96148437 2.63351563 4 2 C3.34 2 2.68 2 2 2 C2.01160156 2.62648437 2.02320312 3.25296875 2.03515625 3.8984375 C2.04417969 4.71570312 2.05320312 5.53296875 2.0625 6.375 C2.07410156 7.18710937 2.08570312 7.99921875 2.09765625 8.8359375 C2 11 2 11 1 13 C0.34 13 -0.32 13 -1 13 C-0.67 8.71 -0.34 4.42 0 0 Z " fill="#1E272E" transform="translate(122,30)"/>
<path d="M0 0 C0.33 0 0.66 0 1 0 C1.8125 2.6875 1.8125 2.6875 2 6 C-0.43245011 8.97299458 -2.80913336 10.87275557 -6 13 C-6.33 11.68 -6.66 10.36 -7 9 C-7.66 9.66 -8.32 10.32 -9 11 C-9.66 9.35 -10.32 7.7 -11 6 C-8.03 6.495 -8.03 6.495 -5 7 C-4.67 6.01 -4.34 5.02 -4 4 C-3.34 4 -2.68 4 -2 4 C-1.34 2.68 -0.68 1.36 0 0 Z " fill="#DF8538" transform="translate(45,43)"/>
<path d="M0 0 C2.4375 0.8125 2.4375 0.8125 5 2 C5.33 2.99 5.66 3.98 6 5 C5.01 6.485 5.01 6.485 4 8 C3.01 8 2.02 8 1 8 C0.67 8.66 0.34 9.32 0 10 C-1.32 10 -2.64 10 -4 10 C-4.66 8.02 -5.32 6.04 -6 4 C-5.01 4 -4.02 4 -3 4 C-2.67 4.66 -2.34 5.32 -2 6 C-1.34 4.02 -0.68 2.04 0 0 Z " fill="#57B1BE" transform="translate(60,36)"/>
<path d="M0 0 C-1.41807378 4.47238653 -3.11304374 8.71146306 -5 13 C-6.32 12.67 -7.64 12.34 -9 12 C-8.67 10.35 -8.34 8.7 -8 7 C-7.34 7 -6.68 7 -6 7 C-6.33 5.02 -6.66 3.04 -7 1 C-4.53721199 -0.231394 -2.7204945 -0.07159196 0 0 Z " fill="#C3665D" transform="translate(33,45)"/>
<path d="M0 0 C-0.375 1.9375 -0.375 1.9375 -1 4 C-1.99 4.495 -1.99 4.495 -3 5 C-3 5.99 -3 6.98 -3 8 C-4.65 8.66 -6.3 9.32 -8 10 C-8 9.01 -8 8.02 -8 7 C-8.66 7 -9.32 7 -10 7 C-9.75 4.625 -9.75 4.625 -9 2 C-6.09557968 -0.17831524 -3.54875053 -0.19715281 0 0 Z " fill="#95D5D9" transform="translate(62,48)"/>
<path d="M0 0 C1.90625 0.44921875 1.90625 0.44921875 4.40625 2.57421875 C6.17364304 5.96172208 6.5339957 7.68274455 5.90625 11.44921875 C4.03125 14.32421875 4.03125 14.32421875 1.90625 16.44921875 C1.24625 16.44921875 0.58625 16.44921875 -0.09375 16.44921875 C0.23625 15.45921875 0.56625 14.46921875 0.90625 13.44921875 C1.56625 13.11921875 2.22625 12.78921875 2.90625 12.44921875 C2.90625 9.47921875 2.90625 6.50921875 2.90625 3.44921875 C-2.12886899 2.44219495 -5.33322038 2.47534062 -10.09375 4.44921875 C-7.13498765 0.50420228 -4.73795999 -0.25634485 0 0 Z " fill="#283037" transform="translate(188.09375,29.55078125)"/>
<path d="M0 0 C2.64 0 5.28 0 8 0 C8 0.99 8 1.98 8 3 C7.34 3 6.68 3 6 3 C6 5.31 6 7.62 6 10 C5.01 10.33 4.02 10.66 3 11 C3 8.36 3 5.72 3 3 C2.01 3 1.02 3 0 3 C0 2.01 0 1.02 0 0 Z " fill="#A94D49" transform="translate(152,52)"/>
<path d="M0 0 C0.99 0 1.98 0 3 0 C3 1.65 3 3.3 3 5 C4.32 5 5.64 5 7 5 C7 6.32 7 7.64 7 9 C5.68 9.33 4.36 9.66 3 10 C2.67 9.34 2.34 8.68 2 8 C1.01 7.67 0.02 7.34 -1 7 C-1.04254356 5.00045254 -1.04080783 2.99958364 -1 1 C-0.67 0.67 -0.34 0.34 0 0 Z " fill="#AF5261" transform="translate(49,57)"/>
<path d="M0 0 C1.4540625 0.0309375 1.4540625 0.0309375 2.9375 0.0625 C2.9375 0.3925 2.9375 0.7225 2.9375 1.0625 C1.2875 1.0625 -0.3625 1.0625 -2.0625 1.0625 C-2.3925 2.7125 -2.7225 4.3625 -3.0625 6.0625 C-1.4125 6.0625 0.2375 6.0625 1.9375 6.0625 C1.2775 6.495625 0.6175 6.92875 -0.0625 7.375 C-0.7225 7.931875 -1.3825 8.48875 -2.0625 9.0625 C-2.0625 10.0525 -2.0625 11.0425 -2.0625 12.0625 C0.2475 12.7225 2.5575 13.3825 4.9375 14.0625 C4.9375 14.3925 4.9375 14.7225 4.9375 15.0625 C1.9675 15.0625 -1.0025 15.0625 -4.0625 15.0625 C-4.08935412 12.75006208 -4.10882841 10.4375373 -4.125 8.125 C-4.13660156 6.83722656 -4.14820313 5.54945312 -4.16015625 4.22265625 C-4.03220921 0.08228998 -4.03220921 0.08228998 0 0 Z " fill="#131D23" transform="translate(149.0625,30.9375)"/>
<path d="M0 0 C2.80362763 -0.22732116 4.46186517 -0.34081872 6.875 1.1875 C8 3 8 3 7.6875 5.6875 C7.460625 6.450625 7.23375 7.21375 7 8 C6.34 8 5.68 8 5 8 C5 6.68 5 5.36 5 4 C1.06924356 4.57452746 1.06924356 4.57452746 -2 7 C-1.125 2.25 -1.125 2.25 0 0 Z " fill="#B03436" transform="translate(171,52)"/>
<path d="M0 0 C1.65 1.65 3.3 3.3 5 5 C2 6 2 6 -1 5 C-0.01 6.98 0.98 8.96 2 11 C1.01 11.66 0.02 12.32 -1 13 C-1.33 11.68 -1.66 10.36 -2 9 C-2.99 9 -3.98 9 -5 9 C-3.90931332 5.22454612 -3.0916909 2.52956528 0 0 Z " fill="#E98864" transform="translate(35,44)"/>
<path d="M0 0 C2.97 0 5.94 0 9 0 C9.33 1.65 9.66 3.3 10 5 C5.545 5.495 5.545 5.495 1 6 C0.67 4.02 0.34 2.04 0 0 Z " fill="#C09755" transform="translate(47,44)"/>
<path d="M0 0 C1.32 0 2.64 0 4 0 C4 3.63 4 7.26 4 11 C2.68 10.67 1.36 10.34 0 10 C0 6.7 0 3.4 0 0 Z " fill="#BE615F" transform="translate(162,52)"/>
<path d="M0 0 C0.99 0 1.98 0 3 0 C3 2.31 3 4.62 3 7 C5.97 7.495 5.97 7.495 9 8 C8.67 8.99 8.34 9.98 8 11 C4.2404812 10.47784461 1.63228537 9.82726947 -1 7 C-1.3125 3.875 -1.3125 3.875 -1 1 C-0.67 0.67 -0.34 0.34 0 0 Z " fill="#101D22" transform="translate(180,35)"/>
<path d="M0 0 C1.32 0.33 2.64 0.66 4 1 C3.90460938 1.60328125 3.80921875 2.2065625 3.7109375 2.828125 C3.60007813 3.62734375 3.48921875 4.4265625 3.375 5.25 C3.20097656 6.43335938 3.20097656 6.43335938 3.0234375 7.640625 C2.99680605 10.32152459 3.63407916 11.72694089 5 14 C3.35 14 1.7 14 0 14 C-0.28875 13.360625 -0.5775 12.72125 -0.875 12.0625 C-1.82823451 9.84793921 -1.82823451 9.84793921 -4 9 C-4 8.34 -4 7.68 -4 7 C-3.01 7 -2.02 7 -1 7 C-0.67 7.66 -0.34 8.32 0 9 C0.66 6.69 1.32 4.38 2 2 C1.34 1.34 0.68 0.68 0 0 Z " fill="#142027" transform="translate(202,32)"/>
<path d="M0 0 C0.99 0 1.98 0 3 0 C4.49297212 2.98594424 4.11755228 5.70853624 4 9 C3.67 9.66 3.34 10.32 3 11 C1.68 10.67 0.36 10.34 -1 10 C-1 9.34 -1 8.68 -1 8 C-1.66 8 -2.32 8 -3 8 C-3 7.01 -3 6.02 -3 5 C0 6 0 6 1 8 C0.67 5.36 0.34 2.72 0 0 Z " fill="#B24A4B" transform="translate(187,52)"/>
<path d="M0 0 C0.99 0.33 1.98 0.66 3 1 C3 3.97 3 6.94 3 10 C2.01 10.33 1.02 10.66 0 11 C-1.62651522 7.74696956 -1.11453156 4.60774398 -1 1 C-0.67 0.67 -0.34 0.34 0 0 Z " fill="#8B282A" transform="translate(87,52)"/>
<path d="M0 0 C0.66 0 1.32 0 2 0 C-0.15381444 5.28663545 -4.42236838 8.77870367 -9 12 C-8.67 10.35 -8.34 8.7 -8 7 C-7.01 6.67 -6.02 6.34 -5 6 C-4.67 5.01 -4.34 4.02 -4 3 C-3.01 3 -2.02 3 -1 3 C-0.67 2.01 -0.34 1.02 0 0 Z " fill="#BC724B" transform="translate(42,33)"/>
<path d="M0 0 C0.99 0.33 1.98 0.66 3 1 C4.25 7.625 4.25 7.625 2 11 C2.80161791 13.67145537 2.80161791 13.67145537 4 16 C3.01 15.67 2.02 15.34 1 15 C-0.1875 11.9375 -0.1875 11.9375 -1 9 C-0.34 8.34 0.32 7.68 1 7 C1 5.68 1 4.36 1 3 C0.01 2.34 -0.98 1.68 -2 1 C-1.34 0.67 -0.68 0.34 0 0 Z " fill="#262F37" transform="translate(138,30)"/>
<path d="M0 0 C0 0.66 0 1.32 0 2 C0.66 2 1.32 2 2 2 C2 1.34 2 0.68 2 0 C2.66 0 3.32 0 4 0 C3 3 3 3 1 4 C-0.70702735 4.06996014 -2.41668003 4.08440154 -4.125 4.0625 C-5.03507812 4.05347656 -5.94515625 4.04445313 -6.8828125 4.03515625 C-7.58148438 4.02355469 -8.28015625 4.01195312 -9 4 C-9 3.34 -9 2.68 -9 2 C-5.62902617 0.50178941 -3.79557881 0 0 0 Z " fill="#327690" transform="translate(65,44)"/>
<path d="M0 0 C2.0625 0.4375 2.0625 0.4375 4 1 C4.70111577 5.05089111 5.08911882 8.05194427 4 12 C4.37907282 14.18703385 4.37907282 14.18703385 5 16 C2.9375 14.5625 2.9375 14.5625 1 12 C0.94176569 8.92416977 1.40777093 6.01264352 2 3 C1.01 2.34 0.02 1.68 -1 1 C-0.67 0.67 -0.34 0.34 0 0 Z " fill="#293137" transform="translate(203,30)"/>
<path d="M0 0 C2.475 0.495 2.475 0.495 5 1 C6.31626692 4.61973402 7 7.09567131 7 11 C6.01 10.67 5.02 10.34 4 10 C3.67 7.69 3.34 5.38 3 3 C2.01 2.67 1.02 2.34 0 2 C0 1.34 0 0.68 0 0 Z " fill="#AF3C3A" transform="translate(143,52)"/>
<path d="M0 0 C0.66 0.66 1.32 1.32 2 2 C1.67 2.99 1.34 3.98 1 5 C1 5.99 1 6.98 1 8 C-0.65 7.67 -2.3 7.34 -4 7 C-4 6.34 -4 5.68 -4 5 C-4.99 4.67 -5.98 4.34 -7 4 C-2.25 1.125 -2.25 1.125 0 0 Z " fill="#C8DBAF" transform="translate(42,25)"/>
<path d="M0 0 C2.1519437 3.22791555 2.20086443 4.28400809 2 8 C3.32 8.33 4.64 8.66 6 9 C6 9.66 6 10.32 6 11 C0.42048518 9.66576819 0.42048518 9.66576819 -1.5 6.625 C-2.0781426 3.58975137 -1.68483352 2.52725028 0 0 Z " fill="#C7676A" transform="translate(46,56)"/>
<path d="M0 0 C1.32 0 2.64 0 4 0 C4 3.3 4 6.6 4 10 C3.34 8.68 2.68 7.36 2 6 C-0.0335948 4.73195434 -0.0335948 4.73195434 -2 4 C-1 1 -1 1 0 0 Z " fill="#BC4444" transform="translate(98,52)"/>
<path d="M0 0 C2.64 0.66 5.28 1.32 8 2 C7.01 3.32 6.02 4.64 5 6 C3.02 5.34 1.04 4.68 -1 4 C-0.67 2.68 -0.34 1.36 0 0 Z " fill="#36719A" transform="translate(67,52)"/>
<path d="M0 0 C0.33 1.65 0.66 3.3 1 5 C0.34 5 -0.32 5 -1 5 C-1.66 6.32 -2.32 7.64 -3 9 C-3.66 6.69 -4.32 4.38 -5 2 C-2 0 -2 0 0 0 Z " fill="#DF8F87" transform="translate(26,47)"/>
<path d="M0 0 C2.64 0 5.28 0 8 0 C7.71848913 1.31471568 7.42446661 2.62675767 7.125 3.9375 C6.96257813 4.66839844 6.80015625 5.39929687 6.6328125 6.15234375 C6 8 6 8 4 9 C4 7.68 4 6.36 4 5 C4.66 5 5.32 5 6 5 C6 4.34 6 3.68 6 3 C4.02 3 2.04 3 0 3 C0 2.01 0 1.02 0 0 Z " fill="#62DFE8" transform="translate(53,34)"/>
<path d="M0 0 C0.99 0 1.98 0 3 0 C4.60546875 1.75 4.60546875 1.75 6.1875 4 C6.71730469 4.7425 7.24710938 5.485 7.79296875 6.25 C8.19128906 6.8275 8.58960937 7.405 9 8 C8.67 8.66 8.34 9.32 8 10 C6.65787938 8.90653119 5.32652025 7.7998425 4 6.6875 C3.2575 6.07261719 2.515 5.45773438 1.75 4.82421875 C0 3 0 3 0 0 Z " fill="#3D5B6E" transform="translate(56,63)"/>
<path d="M0 0 C1.32 0.66 2.64 1.32 4 2 C2 5 2 5 -1 6 C-1.33 6.66 -1.66 7.32 -2 8 C-2.66 8 -3.32 8 -4 8 C-4 6.68 -4 5.36 -4 4 C-3.34 4 -2.68 4 -2 4 C-1.34 2.68 -0.68 1.36 0 0 Z " fill="#EBBE65" transform="translate(39,31)"/>
<path d="M0 0 C1.98 0.495 1.98 0.495 4 1 C3.67 1.33 3.34 1.66 3 2 C2.79231771 3.47396739 2.63283983 4.9549126 2.5 6.4375 C2.10958904 10.78082192 2.10958904 10.78082192 1 13 C0.34 13 -0.32 13 -1 13 C-0.67 8.71 -0.34 4.42 0 0 Z " fill="#212D36" transform="translate(122,30)"/>
<path d="M0 0 C2.475 0.99 2.475 0.99 5 2 C4.67 2.66 4.34 3.32 4 4 C3.01 4 2.02 4 1 4 C1 4.66 1 5.32 1 6 C-0.65 6.66 -2.3 7.32 -4 8 C-4.66 7.34 -5.32 6.68 -6 6 C-4.35 5.67 -2.7 5.34 -1 5 C-0.67 3.35 -0.34 1.7 0 0 Z " fill="#57A4AF" transform="translate(52,26)"/>
<path d="M0 0 C1.4540625 0.0309375 1.4540625 0.0309375 2.9375 0.0625 C3.2675 0.7225 3.5975 1.3825 3.9375 2.0625 C1.9575 2.0625 -0.0225 2.0625 -2.0625 2.0625 C-1.4025 4.0425 -0.7425 6.0225 -0.0625 8.0625 C-1.0525 8.0625 -2.0425 8.0625 -3.0625 8.0625 C-4.0625 7.0625 -4.0625 7.0625 -4.1875 4.0625 C-4.02164894 0.08207447 -4.02164894 0.08207447 0 0 Z " fill="#B23C3B" transform="translate(120.0625,52.9375)"/>
<path d="M0 0 C1.32 0 2.64 0 4 0 C3.39301257 4.12751449 1.96189209 7.3321148 0 11 C-1.32 10.67 -2.64 10.34 -4 10 C-3.67 9.34 -3.34 8.68 -3 8 C-2.01 8.33 -1.02 8.66 0 9 C0.66 6.69 1.32 4.38 2 2 C1.34 2 0.68 2 0 2 C0 1.34 0 0.68 0 0 Z " fill="#A74846" transform="translate(135,52)"/>
<path d="M0 0 C0.66 0.33 1.32 0.66 2 1 C2 3.42797311 1.49914315 5.62907005 1 8 C-0.65 7.67 -2.3 7.34 -4 7 C-3.67 6.01 -3.34 5.02 -3 4 C-2.34 4 -1.68 4 -1 4 C-0.67 2.68 -0.34 1.36 0 0 Z " fill="#4CA9C0" transform="translate(62,48)"/>
<path d="M0 0 C1.32 0 2.64 0 4 0 C4 0.99 4 1.98 4 3 C4.969375 3.28875 5.93875 3.5775 6.9375 3.875 C10 5 10 5 11 7 C7.64566891 6.05066101 4.30753495 5.10251165 1 4 C0.3125 1.9375 0.3125 1.9375 0 0 Z " fill="#D6ECC3" transform="translate(45,37)"/>
<path d="M0 0 C0 0.66 0 1.32 0 2 C-0.9590625 2.1546875 -0.9590625 2.1546875 -1.9375 2.3125 C-2.618125 2.539375 -3.29875 2.76625 -4 3 C-4.33 3.99 -4.66 4.98 -5 6 C-6.32 5.67 -7.64 5.34 -9 5 C-9 4.01 -9 3.02 -9 2 C-5.86501708 0.14223235 -3.62528568 -0.20140476 0 0 Z " fill="#7FE6EC" transform="translate(58,31)"/>
<path d="M0 0 C-0.99 0.495 -0.99 0.495 -2 1 C-2 1.99 -2 2.98 -2 4 C-4.64 4.66 -7.28 5.32 -10 6 C-7.82304683 0.97626191 -5.41372848 -0.29263397 0 0 Z " fill="#EDE5B0" transform="translate(38,30)"/>
<path d="M0 0 C0 1.32 0 2.64 0 4 C-3.13498292 5.85776765 -5.37471432 6.20140476 -9 6 C-7.36742273 2.73484545 -3.71579409 0 0 0 Z " fill="#3D4E6B" transform="translate(76,55)"/>
<path d="M0 0 C0.33 1.32 0.66 2.64 1 4 C-0.9375 6.75 -0.9375 6.75 -3 9 C-3.99 8.67 -4.98 8.34 -6 8 C-4.02 5.36 -2.04 2.72 0 0 Z " fill="#6D182B" transform="translate(43,52)"/>
<path d="M0 0 C2.4375 0.8125 2.4375 0.8125 5 2 C5.33 2.99 5.66 3.98 6 5 C5.01 5.99 4.02 6.98 3 8 C2.67 7.34 2.34 6.68 2 6 C2.33 5.34 2.66 4.68 3 4 C2.01 4 1.02 4 0 4 C0 2.68 0 1.36 0 0 Z " fill="#5ACAD3" transform="translate(60,36)"/>
<path d="M0 0 C0.99 0.495 0.99 0.495 2 1 C2.37890625 2.99609375 2.37890625 2.99609375 2.5625 5.4375 C2.8061175 8.84628205 2.8061175 8.84628205 4 12 C2.68 11.67 1.36 11.34 0 11 C0 7.37 0 3.74 0 0 Z " fill="#15222D" transform="translate(88,31)"/>
<path d="M0 0 C0.99 0.495 0.99 0.495 2 1 C1.67 2.32 1.34 3.64 1 5 C2.98 5.495 2.98 5.495 5 6 C5.33 5.01 5.66 4.02 6 3 C6.66 3.66 7.32 4.32 8 5 C7.67 5.99 7.34 6.98 7 8 C4.69 7.34 2.38 6.68 0 6 C0 4.02 0 2.04 0 0 Z " fill="#BE7175" transform="translate(29,55)"/>
<path d="M0 0 C0.33 0 0.66 0 1 0 C1.6875 2.8125 1.6875 2.8125 2 6 C0.5625 7.875 0.5625 7.875 -1 9 C-1.66 8.67 -2.32 8.34 -3 8 C-2.37240135 5.07120629 -1.41377341 2.63904371 0 0 Z " fill="#B33C30" transform="translate(38,51)"/>
<path d="M0 0 C0.33 0.66 0.66 1.32 1 2 C2.98 1.67 4.96 1.34 7 1 C7.33 1.99 7.66 2.98 8 4 C5.69 3.67 3.38 3.34 1 3 C0.67 3.99 0.34 4.98 0 6 C-0.38218767 4.34385343 -0.71395102 2.67542976 -1 1 C-0.67 0.67 -0.34 0.34 0 0 Z " fill="#5EBACF" transform="translate(66,49)"/>
<path d="M0 0 C1.1875 1.6875 1.1875 1.6875 2 4 C1.125 6.75 1.125 6.75 -1 9 C-3.7964684 9.44501756 -6.14221457 9.23424471 -9 9 C-8.67 8.34 -8.34 7.68 -8 7 C-7.21625 7.04125 -6.4325 7.0825 -5.625 7.125 C-2.83883881 7.28728734 -2.83883881 7.28728734 -1 5 C-0.35232207 2.42938689 -0.35232207 2.42938689 0 0 Z " fill="#1D2A30" transform="translate(97,37)"/>
<path d="M0 0 C1.32 0.33 2.64 0.66 4 1 C3.67 2.32 3.34 3.64 3 5 C1.35 5.33 -0.3 5.66 -2 6 C-2.33 5.01 -2.66 4.02 -3 3 C-1.68 3.33 -0.36 3.66 1 4 C0.67 2.68 0.34 1.36 0 0 Z " fill="#A73437" transform="translate(197,57)"/>
<path d="M0 0 C0 0.33 0 0.66 0 1 C-2.31 1 -4.62 1 -7 1 C-6.34 2.65 -5.68 4.3 -5 6 C-5.99 5.67 -6.98 5.34 -8 5 C-8.33 3.02 -8.66 1.04 -9 -1 C-5.79937313 -2.60031344 -3.27728194 -1.03173691 0 0 Z " fill="#EACA75" transform="translate(54,43)"/>
<path d="M0 0 C3 3.75 3 3.75 3 6 C1.02 6.33 -0.96 6.66 -3 7 C-3 3.48283697 -2.17554415 2.62878252 0 0 Z " fill="#E6CC9F" transform="translate(43,35)"/>
<path d="M0 0 C1.98 0 3.96 0 6 0 C5.01 0.495 5.01 0.495 4 1 C4 3.31 4 5.62 4 8 C3.34 8 2.68 8 2 8 C1.34 5.36 0.68 2.72 0 0 Z " fill="#A62625" transform="translate(153,53)"/>
<path d="M0 0 C1.32 0 2.64 0 4 0 C3.1875 2.9375 3.1875 2.9375 2 6 C1.01 6.33 0.02 6.66 -1 7 C-0.67 4.69 -0.34 2.38 0 0 Z " fill="#B65741" transform="translate(29,45)"/>
<path d="M0 0 C1.65 0 3.3 0 5 0 C5.33 0.99 5.66 1.98 6 3 C4.02 3.99 4.02 3.99 2 5 C1.34 4.34 0.68 3.68 0 3 C0 2.01 0 1.02 0 0 Z " fill="#E0A739" transform="translate(47,44)"/>
<path d="M0 0 C0.99 0.495 0.99 0.495 2 1 C2.4140625 3.06640625 2.4140625 3.06640625 2.625 5.5625 C2.69976562 6.38878906 2.77453125 7.21507812 2.8515625 8.06640625 C2.92503906 9.02353516 2.92503906 9.02353516 3 10 C2.67 9.34 2.34 8.68 2 8 C1.34 8 0.68 8 0 8 C0 5.36 0 2.72 0 0 Z " fill="#CF4947" transform="translate(163,53)"/>
<path d="M0 0 C0.33 0 0.66 0 1 0 C1.33 1.98 1.66 3.96 2 6 C1.01 6.33 0.02 6.66 -1 7 C-1.99 6.01 -2.98 5.02 -4 4 C-3.34 4 -2.68 4 -2 4 C-1.34 2.68 -0.68 1.36 0 0 Z " fill="#DFA250" transform="translate(45,43)"/>
<path d="M0 0 C3 3.75 3 3.75 3 6 C1.35 6 -0.3 6 -2 6 C-1.125 1.125 -1.125 1.125 0 0 Z " fill="#E5D88E" transform="translate(27,35)"/>
<path d="M0 0 C0.33 0 0.66 0 1 0 C1 2.64 1 5.28 1 8 C0.01 7.67 -0.98 7.34 -2 7 C-1.125 1.125 -1.125 1.125 0 0 Z " fill="#5DA5C2" transform="translate(64,62)"/>
<path d="M0 0 C1.65 1.65 3.3 3.3 5 5 C1.86650268 6.04449911 1.01031744 5.93423645 -2 5 C-1.125 1.125 -1.125 1.125 0 0 Z " fill="#EDBB6C" transform="translate(35,44)"/>
<path d="M0 0 C0.66 0 1.32 0 2 0 C2 1.32 2 2.64 2 4 C-0.31 4.33 -2.62 4.66 -5 5 C-5 4.34 -5 3.68 -5 3 C-3.35 2.67 -1.7 2.34 0 2 C0 1.34 0 0.68 0 0 Z " fill="#F6C392" transform="translate(31,41)"/>
<path d="M0 0 C0.66 0 1.32 0 2 0 C0.70700306 2.88437779 -0.65941363 4.87219421 -3 7 C-3.33 5.68 -3.66 4.36 -4 3 C-3.01 3 -2.02 3 -1 3 C-0.67 2.01 -0.34 1.02 0 0 Z " fill="#AE6F43" transform="translate(42,33)"/>
<path d="M0 0 C0.66 0 1.32 0 2 0 C2.1875 2.375 2.1875 2.375 2 5 C1.01 5.66 0.02 6.32 -1 7 C-1.04254356 5.00045254 -1.04080783 2.99958364 -1 1 C-0.67 0.67 -0.34 0.34 0 0 Z " fill="#C02628" transform="translate(49,57)"/>
<path d="M0 0 C1.32 0.33 2.64 0.66 4 1 C3.67 3.31 3.34 5.62 3 8 C0.4345406 5.4345406 0.45953913 3.52313332 0 0 Z " fill="#A0494B" transform="translate(128,52)"/>
<path d="M0 0 C0.66 0.33 1.32 0.66 2 1 C1.67 2.32 1.34 3.64 1 5 C0.34 5 -0.32 5 -1 5 C-1.33 6.32 -1.66 7.64 -2 9 C-2.33 8.34 -2.66 7.68 -3 7 C-2.06421005 4.64018187 -1.06652192 2.30368736 0 0 Z " fill="#F8E7C6" transform="translate(24,40)"/>
<path d="M0 0 C2.31 1.98 4.62 3.96 7 6 C6.01 6.33 5.02 6.66 4 7 C2 5.1875 2 5.1875 0 3 C0 2.01 0 1.02 0 0 Z " fill="#1C272D" transform="translate(161,39)"/>
<path d="M0 0 C1.32 0 2.64 0 4 0 C4 0.66 4 1.32 4 2 C2.1875 3.6875 2.1875 3.6875 0 5 C-0.99 4.67 -1.98 4.34 -3 4 C-3 3.34 -3 2.68 -3 2 C-2.01 2 -1.02 2 0 2 C0 1.34 0 0.68 0 0 Z " fill="#7FE6EB" transform="translate(55,37)"/>
<path d="M0 0 C0.66 1.32 1.32 2.64 2 4 C0.02 4 -1.96 4 -4 4 C-4 3.01 -4 2.02 -4 1 C-2.68 0.67 -1.36 0.34 0 0 Z " fill="#2A3136" transform="translate(175,32)"/>
<path d="M0 0 C0.66 0.66 1.32 1.32 2 2 C1.01 3.485 1.01 3.485 0 5 C-1.32 4.67 -2.64 4.34 -4 4 C-4 3.34 -4 2.68 -4 2 C-2.68 1.34 -1.36 0.68 0 0 Z " fill="#B9F3EF" transform="translate(42,25)"/>
</svg>
